<svg xmlns="http://www.w3.org/2000/svg" xmlns:xlink="http://www.w3.org/1999/xlink" width="1205pt" height="282pt" viewBox="0.00 0.00 1204.86 282.40">
<g id="graph0" class="graph" transform="scale(1 1) rotate(0) translate(4 278.4)">
<title>Architecture</title>
<polygon fill="white" stroke="none" points="-4,4 -4,-278.4 1200.86,-278.4 1200.86,4 -4,4"/>
<!-- RemoteMemberRegistrationIT -->
<g id="node1" class="node">
<title>RemoteMemberRegistrationIT</title>
<polygon fill="lightblue" stroke="black" points="724.77,-119.2 500.01,-119.2 500.01,-77.6 724.77,-77.6 724.77,-119.2"/>
<text text-anchor="middle" x="612.39" y="-102.6" font-family="Times,serif" font-size="14.00">RemoteMemberRegistrationIT</text>
<text text-anchor="middle" x="612.39" y="-85.8" font-family="Times,serif" font-size="14.00">(RemoteMemberRegistrationIT.java)</text>
</g>
<!-- Member -->
<g id="node8" class="node">
<title>Member</title>
<polygon fill="lightblue" stroke="black" points="732.18,-41.6 632.61,-41.6 632.61,0 732.18,0 732.18,-41.6"/>
<text text-anchor="middle" x="682.39" y="-25" font-family="Times,serif" font-size="14.00">Member</text>
<text text-anchor="middle" x="682.39" y="-8.2" font-family="Times,serif" font-size="14.00">(Member.java)</text>
</g>
<!-- RemoteMemberRegistrationIT&#45;&gt;Member -->
<g id="edge1" class="edge">
<title>RemoteMemberRegistrationIT-&gt;Member</title>
<path fill="none" stroke="red" stroke-dasharray="1,5" d="M631.15,-77.14C638.82,-68.85 647.83,-59.12 656.14,-50.15"/>
<polygon fill="red" stroke="red" points="658.57,-52.68 662.8,-42.96 653.43,-47.92 658.57,-52.68"/>
</g>
<!-- MemberRegistrationIT -->
<g id="node2" class="node">
<title>MemberRegistrationIT</title>
<polygon fill="lightblue" stroke="black" points="839,-274.4 657.78,-274.4 657.78,-232.8 839,-232.8 839,-274.4"/>
<text text-anchor="middle" x="748.39" y="-257.8" font-family="Times,serif" font-size="14.00">MemberRegistrationIT</text>
<text text-anchor="middle" x="748.39" y="-241" font-family="Times,serif" font-size="14.00">(MemberRegistrationIT.java)</text>
</g>
<!-- MongoDBConfig -->
<g id="node3" class="node">
<title>MongoDBConfig</title>
<polygon fill="lightblue" stroke="black" points="1196.86,-196.8 1045.93,-196.8 1045.93,-155.2 1196.86,-155.2 1196.86,-196.8"/>
<text text-anchor="middle" x="1121.39" y="-180.2" font-family="Times,serif" font-size="14.00">MongoDBConfig</text>
<text text-anchor="middle" x="1121.39" y="-163.4" font-family="Times,serif" font-size="14.00">(MongoDBConfig.java)</text>
</g>
<!-- MemberRegistrationIT&#45;&gt;MongoDBConfig -->
<g id="edge5" class="edge">
<title>MemberRegistrationIT-&gt;MongoDBConfig</title>
<path fill="none" stroke="red" stroke-dasharray="1,5" d="M839.29,-234.4C842.02,-233.86 844.73,-233.33 847.39,-232.8 929.57,-216.59 950.39,-213.9 1032.39,-196.8 1033.07,-196.66 1033.75,-196.52 1034.43,-196.37"/>
<polygon fill="red" stroke="red" points="1035.14,-199.8 1044.2,-194.3 1033.69,-192.95 1035.14,-199.8"/>
</g>
<!-- Main -->
<g id="node4" class="node">
<title>Main</title>
<polygon fill="lightblue" stroke="black" points="310.24,-196.8 228.54,-196.8 228.54,-155.2 310.24,-155.2 310.24,-196.8"/>
<text text-anchor="middle" x="269.39" y="-180.2" font-family="Times,serif" font-size="14.00">Main</text>
<text text-anchor="middle" x="269.39" y="-163.4" font-family="Times,serif" font-size="14.00">(Main.java)</text>
</g>
<!-- MemberRegistrationIT&#45;&gt;Main -->
<g id="edge2" class="edge">
<title>MemberRegistrationIT-&gt;Main</title>
<path fill="none" stroke="red" stroke-dasharray="1,5" d="M657.45,-238.25C558.14,-222.57 402.52,-198.01 321.83,-185.28"/>
<polygon fill="red" stroke="red" points="322.41,-181.82 311.98,-183.72 321.32,-188.74 322.41,-181.82"/>
</g>
<!-- MemberRegistrationIT&#45;&gt;Member -->
<g id="edge3" class="edge">
<title>MemberRegistrationIT-&gt;Member</title>
<path fill="none" stroke="red" stroke-dasharray="1,5" d="M838.61,-232.36C889.81,-220.14 945.44,-205.34 954.39,-196.8 993.56,-159.44 1013.95,-119.26 979.39,-77.6 950.06,-42.24 821.85,-29.15 743.79,-24.4"/>
<polygon fill="red" stroke="red" points="744.35,-20.93 734.17,-23.85 743.95,-27.92 744.35,-20.93"/>
</g>
<!-- MemberRegistration -->
<g id="node10" class="node">
<title>MemberRegistration</title>
<polygon fill="lightblue" stroke="black" points="382.39,-119.2 214.39,-119.2 214.39,-77.6 382.39,-77.6 382.39,-119.2"/>
<text text-anchor="middle" x="298.39" y="-102.6" font-family="Times,serif" font-size="14.00">MemberRegistration</text>
<text text-anchor="middle" x="298.39" y="-85.8" font-family="Times,serif" font-size="14.00">(MemberRegistration.java)</text>
</g>
<!-- MemberRegistrationIT&#45;&gt;MemberRegistration -->
<g id="edge4" class="edge">
<title>MemberRegistrationIT-&gt;MemberRegistration</title>
<path fill="none" stroke="red" stroke-dasharray="1,5" d="M657.34,-233.96C615.46,-224.43 565.41,-211.7 521.39,-196.8 460.82,-176.3 393.92,-145.99 349.34,-124.64"/>
<polygon fill="red" stroke="red" points="350.96,-121.53 340.43,-120.34 347.92,-127.84 350.96,-121.53"/>
</g>
<!-- ApplicationConfiguration -->
<g id="node5" class="node">
<title>ApplicationConfiguration</title>
<polygon fill="lightblue" stroke="black" points="196.78,-119.2 0,-119.2 0,-77.6 196.78,-77.6 196.78,-119.2"/>
<text text-anchor="middle" x="98.39" y="-102.6" font-family="Times,serif" font-size="14.00">ApplicationConfiguration</text>
<text text-anchor="middle" x="98.39" y="-85.8" font-family="Times,serif" font-size="14.00">(ApplicationConfiguration.java)</text>
</g>
<!-- Main&#45;&gt;ApplicationConfiguration -->
<g id="edge7" class="edge">
<title>Main-&gt;ApplicationConfiguration</title>
<path fill="none" stroke="red" stroke-dasharray="1,5" d="M228.43,-156.89C206.31,-147.11 178.67,-134.89 154.57,-124.24"/>
<polygon fill="red" stroke="red" points="156.08,-121.08 145.52,-120.24 153.25,-127.48 156.08,-121.08"/>
</g>
<!-- ApplicationConfiguration&#45;&gt;Member -->
<g id="edge10" class="edge">
<title>ApplicationConfiguration-&gt;Member</title>
<path fill="none" stroke="red" stroke-dasharray="1,5" d="M197.17,-78.87C199.94,-78.43 202.68,-78.01 205.39,-77.6 354.03,-55.18 529.89,-36.66 620.91,-27.67"/>
<polygon fill="red" stroke="red" points="621,-31.18 630.61,-26.72 620.31,-24.21 621,-31.18"/>
</g>
<!-- DatabaseSequence -->
<g id="node9" class="node">
<title>DatabaseSequence</title>
<polygon fill="lightblue" stroke="black" points="276.94,-41.6 119.85,-41.6 119.85,0 276.94,0 276.94,-41.6"/>
<text text-anchor="middle" x="198.39" y="-25" font-family="Times,serif" font-size="14.00">DatabaseSequence</text>
<text text-anchor="middle" x="198.39" y="-8.2" font-family="Times,serif" font-size="14.00">(DatabaseSequence.java)</text>
</g>
<!-- ApplicationConfiguration&#45;&gt;DatabaseSequence -->
<g id="edge9" class="edge">
<title>ApplicationConfiguration-&gt;DatabaseSequence</title>
<path fill="none" stroke="red" stroke-dasharray="1,5" d="M125.19,-77.14C136.72,-68.43 150.35,-58.12 162.72,-48.77"/>
<polygon fill="red" stroke="red" points="164.79,-51.59 170.66,-42.77 160.57,-46 164.79,-51.59"/>
</g>
<!-- Resources -->
<g id="node6" class="node">
<title>Resources</title>
<polygon fill="lightblue" stroke="black" points="966.23,-274.4 856.55,-274.4 856.55,-232.8 966.23,-232.8 966.23,-274.4"/>
<text text-anchor="middle" x="911.39" y="-257.8" font-family="Times,serif" font-size="14.00">Resources</text>
<text text-anchor="middle" x="911.39" y="-241" font-family="Times,serif" font-size="14.00">(Resources.java)</text>
</g>
<!-- MemberController -->
<g id="node7" class="node">
<title>MemberController</title>
<polygon fill="lightblue" stroke="black" points="944.95,-196.8 787.83,-196.8 787.83,-155.2 944.95,-155.2 944.95,-196.8"/>
<text text-anchor="middle" x="866.39" y="-180.2" font-family="Times,serif" font-size="14.00">MemberController</text>
<text text-anchor="middle" x="866.39" y="-163.4" font-family="Times,serif" font-size="14.00">(MemberController.java)</text>
</g>
<!-- MemberController&#45;&gt;Member -->
<g id="edge12" class="edge">
<title>MemberController-&gt;Member</title>
<path fill="none" stroke="red" stroke-dasharray="1,5" d="M922.14,-154.72C937.6,-146.22 952.55,-134.64 961.39,-119.2 970.58,-103.15 973.11,-91.9 961.39,-77.6 934.45,-44.74 817.71,-30.84 744.04,-25.26"/>
<polygon fill="red" stroke="red" points="744.34,-21.78 734.11,-24.55 743.83,-28.76 744.34,-21.78"/>
</g>
<!-- MemberController&#45;&gt;MemberRegistration -->
<g id="edge13" class="edge">
<title>MemberController-&gt;MemberRegistration</title>
<path fill="none" stroke="red" stroke-dasharray="1,5" d="M787.35,-158.45C780.62,-157.26 773.89,-156.16 767.39,-155.2 604.88,-131.23 559.26,-144.14 393.79,-119.47"/>
<polygon fill="red" stroke="red" points="394.62,-116.06 384.21,-118.02 393.57,-122.98 394.62,-116.06"/>
</g>
<!-- MemberListProducer -->
<g id="node11" class="node">
<title>MemberListProducer</title>
<polygon fill="lightblue" stroke="black" points="952.33,-119.2 780.45,-119.2 780.45,-77.6 952.33,-77.6 952.33,-119.2"/>
<text text-anchor="middle" x="866.39" y="-102.6" font-family="Times,serif" font-size="14.00">MemberListProducer</text>
<text text-anchor="middle" x="866.39" y="-85.8" font-family="Times,serif" font-size="14.00">(MemberListProducer.java)</text>
</g>
<!-- MemberController&#45;&gt;MemberListProducer -->
<g id="edge11" class="edge">
<title>MemberController-&gt;MemberListProducer</title>
<path fill="none" stroke="red" stroke-dasharray="1,5" d="M866.39,-154.74C866.39,-147.39 866.39,-138.91 866.39,-130.83"/>
<polygon fill="red" stroke="red" points="869.89,-130.97 866.39,-120.97 862.89,-130.97 869.89,-130.97"/>
</g>
<!-- MemberRegistration&#45;&gt;Member -->
<g id="edge16" class="edge">
<title>MemberRegistration-&gt;Member</title>
<path fill="none" stroke="red" stroke-dasharray="1,5" d="M382.53,-79.41C385.52,-78.79 388.48,-78.19 391.39,-77.6 470.61,-61.57 562.21,-44.2 621.15,-33.17"/>
<polygon fill="red" stroke="red" points="621.45,-36.67 630.64,-31.4 620.16,-29.79 621.45,-36.67"/>
</g>
<!-- MemberRegistration&#45;&gt;DatabaseSequence -->
<g id="edge15" class="edge">
<title>MemberRegistration-&gt;DatabaseSequence</title>
<path fill="none" stroke="red" stroke-dasharray="1,5" d="M271.59,-77.14C260.07,-68.43 246.43,-58.12 234.07,-48.77"/>
<polygon fill="red" stroke="red" points="236.21,-46 226.12,-42.77 231.99,-51.59 236.21,-46"/>
</g>
<!-- MemberListProducer&#45;&gt;Member -->
<g id="edge17" class="edge">
<title>MemberListProducer-&gt;Member</title>
<path fill="none" stroke="red" stroke-dasharray="1,5" d="M817.08,-77.14C793.99,-67.65 766.29,-56.27 742.03,-46.31"/>
<polygon fill="red" stroke="red" points="743.5,-43.12 732.92,-42.56 740.84,-49.6 743.5,-43.12"/>
</g>
<!-- MemberResourceRESTService -->
<g id="node12" class="node">
<title>MemberResourceRESTService</title>
<polygon fill="lightblue" stroke="black" points="758.32,-196.8 530.46,-196.8 530.46,-155.2 758.32,-155.2 758.32,-196.8"/>
<text text-anchor="middle" x="644.39" y="-180.2" font-family="Times,serif" font-size="14.00">MemberResourceRESTService</text>
<text text-anchor="middle" x="644.39" y="-163.4" font-family="Times,serif" font-size="14.00">(MemberResourceRESTService.java)</text>
</g>
<!-- MemberResourceRESTService&#45;&gt;Member -->
<g id="edge18" class="edge">
<title>MemberResourceRESTService-&gt;Member</title>
<path fill="none" stroke="red" stroke-dasharray="1,5" d="M695.3,-154.81C710.28,-146.2 724.92,-134.52 733.39,-119.2 742.34,-103.02 740.08,-94.84 733.39,-77.6 729.49,-67.54 722.83,-58.18 715.58,-50.11"/>
<polygon fill="red" stroke="red" points="718.13,-47.72 708.65,-42.98 713.11,-52.59 718.13,-47.72"/>
</g>
<!-- MemberResourceRESTService&#45;&gt;MemberRegistration -->
<g id="edge19" class="edge">
<title>MemberResourceRESTService-&gt;MemberRegistration</title>
<path fill="none" stroke="red" stroke-dasharray="1,5" d="M551.67,-154.74C502.82,-144.07 442.99,-131 393.76,-120.24"/>
<polygon fill="red" stroke="red" points="394.77,-116.88 384.25,-118.16 393.28,-123.71 394.77,-116.88"/>
</g>
<!-- SpringBootServletInitializer -->
<g id="node13" class="node">
<title>SpringBootServletInitializer</title>
<polygon fill="lightblue" stroke="black" points="356.71,-271.6 182.07,-271.6 182.07,-235.6 356.71,-235.6 356.71,-271.6"/>
<text text-anchor="middle" x="269.39" y="-249.4" font-family="Times,serif" font-size="14.00">SpringBootServletInitializer</text>
</g>
<!-- SpringBootServletInitializer&#45;&gt;Main -->
<g id="edge6" class="edge">
<title>SpringBootServletInitializer-&gt;Main</title>
<path fill="none" stroke="blue" d="M269.39,-235.45C269.39,-227.42 269.39,-217.6 269.39,-208.32"/>
<polygon fill="none" stroke="blue" points="272.89,-208.55 269.39,-198.55 265.89,-208.55 272.89,-208.55"/>
</g>
<!-- ApplicationListener -->
<g id="node14" class="node">
<title>ApplicationListener</title>
<polygon fill="lightblue" stroke="black" points="162.37,-194 34.41,-194 34.41,-158 162.37,-158 162.37,-194"/>
<text text-anchor="middle" x="98.39" y="-171.8" font-family="Times,serif" font-size="14.00">ApplicationListener</text>
</g>
<!-- ApplicationListener&#45;&gt;ApplicationConfiguration -->
<g id="edge8" class="edge">
<title>ApplicationListener-&gt;ApplicationConfiguration</title>
<path fill="none" stroke="green" stroke-dasharray="5,2" d="M98.39,-157.85C98.39,-149.82 98.39,-140 98.39,-130.72"/>
<polygon fill="none" stroke="green" points="101.89,-130.95 98.39,-120.95 94.89,-130.95 101.89,-130.95"/>
</g>
<!-- Serializable -->
<g id="node15" class="node">
<title>Serializable</title>
<polygon fill="lightblue" stroke="black" points="482.43,-116.4 400.35,-116.4 400.35,-80.4 482.43,-80.4 482.43,-116.4"/>
<text text-anchor="middle" x="441.39" y="-94.2" font-family="Times,serif" font-size="14.00">Serializable</text>
</g>
<!-- Serializable&#45;&gt;Member -->
<g id="edge14" class="edge">
<title>Serializable-&gt;Member</title>
<path fill="none" stroke="green" stroke-dasharray="5,2" d="M482.75,-80.68C485.67,-79.61 488.57,-78.57 491.39,-77.6 534.36,-62.85 583.59,-48.53 621.31,-38.09"/>
<polygon fill="none" stroke="green" points="621.95,-41.54 630.67,-35.51 620.1,-34.79 621.95,-41.54"/>
</g>
</g>
</svg>